<?xml version="1.0" encoding="UTF-8"?>
<!-- Created with Inkscape (http://www.inkscape.org/) -->
<svg width="98.98mm" height="96.702mm" version="1.1" viewBox="0 0 98.98 96.702" xmlns="http://www.w3.org/2000/svg">
 <g transform="translate(49.496 48.35)" stroke="#000" stroke-width="2">
  <path d="m-11.864-16.248c-0.087-6e-3 -11.767-3.847-9.329 4.484 0.965 3.297 7.219 6.311 10.436 5.028 1.242-0.495 1.89-0.084 1.516 1.142-1.151 3.772-0.691 7.771-1.739 11.548-0.137 0.492-0.12 0.865 0.567 1.007 7.46 1.544 8.012 2.392 8.413 0.659 0.952-4.108 2.067-8.214 6.408-9.343 2.13-0.554 4.042 0.27 5.964 1.22 8.429 4.164 2.072 9.235 5.051 10.337 1.757 0.65 3.503 1.298 5.388 1.485 1.761 0.175 2.133 0.617 1.869 2.296-2.386 15.192-3.44 14.222-4.762 21.745-0.562 3.201-3.238 8.706-6.159 9.937-3.08 1.297-6.262 2.404-9.673 1.951-15.053-2-15.702-3.149-17.651-1.925-0.491 0.308-3.87-0.972-7.433-1.45-11.547-1.55-22.178-3.056-24.823-14.523-0.314-1.359-0.296-2.791-0.508-4.178-0.525-3.435 0.5-6.862-0.032-10.013 0.164-2.618 0.01-4.954 0.251-7.303 0.318-3.111 1.395-6.071 1.509-9.222 0.264-7.317 2.254-14.247 5.137-20.925 6.148-14.24 26.678-7.067 32.894-6.697 2.849 0.17 1.082 1.137 0.136 10.347-0.25 2.428-0.407 2.608-3.43 2.393zm-2.49 59.651c2.357 0.68 4.782 0.993 7.214 1.189 1.171 0.095 10.141 1.806 14.556 0.843 4.698-1.024 7.532-4.052 8.654-8.462 1.623-6.378 3.545-12.7 4.446-19.249 0.943-6.862 0.771-3.222-6.624-7.013-1.143-0.586-1.471-1.232-0.843-2.473 1.146-2.263 0.697-4.161-1.195-5.874-4.545-4.119-8.488-3.264-10.749 0.297-2.828 4.452-0.845 9.396-6.093 7.091-1.732-0.761-3.582-1.023-5.432-1.312-1.766-0.276-0.791 0.306-2.48 11.19-0.136 0.875 0.355 1.347 1.128 1.325 2.661-0.074 4.919 1.203 7.267 2.121 6.881 2.691 2.275 12.652-6.797 10.983-3.056-0.562-3.042-0.587-3.195 1.468-0.162 2.175-0.207 4.374-0.831 6.482-0.289 0.983 0.3 1.199 0.974 1.394zm2.903-21.151c-1.421-0.517-1.734 0.145-1.8 1.418-0.389 7.528-1.374 8.601 0.201 8.797 1.003 0.125 1.96-0.016 2.248-1.144 0.458-1.797 1.003-3.601 0.731-5.5-0.454-3.178 2.211-3.571-1.38-3.571zm2.719 10.566c3.271-0.401 2.751-0.818 3.269-6.851 0.073-1.784-0.703-2.64-2.082-2.816-0.867-0.111-0.504-0.11-1.601 6.72-0.338 2.113-1.345 3.163 0.414 2.947zm3.793-1.6c2.65-1.741 3.68-5.176 0.79-6.384 0.157 2.334-0.69 4.279-0.79 6.384zm-13.123 11.895c1.703 0.706 1.667-1.695 2.556-9.543 4e-3 -0.043 1.802-19.966 2.516-23.681 0.265-1.38-0.601-1.631-1.68-1.851-1.163-0.237-1.265 0.419-1.444 1.273-0.631 3.014-0.623 6.101-1.113 9.132-3.295 20.352-0.086 2.106-2.866 23.124-0.214 1.618 1.239 1.217 2.031 1.546zm-6.324-1.203c0.837 0.153 1.829 0.829 2.547-0.303 0.401-0.632 0.616-1.352 0.656-2.065 0.371-6.517 3.747-27.243 3.529-29.546 0.017-2.523-0.142-2.712-2.225-3.012-0.759-0.109-1.17 0.072-1.236 0.928-2.58 33.401-4.607 33.753-3.271 33.998zm-3.506-0.27c1.879 0.175 1.945 0.115 2.124-1.453 2.202-19.285 2.712-20.644 2.419-23.734-1.58 0.835-2.282 2.014-2.443 3.554-1.469 14.06 0.22 3.295-2.966 19.816-0.151 0.778-0.545 1.685 0.866 1.817zm-2.687-0.507c0.555-0.171 0.671-0.595 0.702-1.085 0.27-4.316 1.724-8.439 2.067-12.743 0.786-9.854 1.325-9.006-1.193-9.012-3.406-0.432-0.316 2.528-4.699 19.872-0.562 2.223 0.836 3.672 3.123 2.968zm-6.17-1.313c1.032 0.155 1.698 0.111 1.907-1.116 1.692-9.959 0.83-1.315 2.566-18.961-0.049-1.165 0.377-2.429-1.092-3.132-0.723-0.346-1.09-0.23-1.114 0.589-0.212 7.15-2.393 13.998-3.248 21.052-0.119 0.988-0.101 1.405 0.981 1.568zm-3.655-1.808c1.312 0.654 1.492 0.623 1.774-0.89 4.652-25.001 1.974-19.246 3.113-29.388 0.106-0.942-0.582-1.169-1.244-1.278-1.684-0.278-0.44 6.578-4.763 29.442-0.194 1.024 0.182 1.646 1.12 2.114zm-5.192-5.22c0.905 1.108 1.267 2.637 2.873 3.593 0.746-5.064 1.927-9.845 2.3-14.784 0.937-12.421 2.493-15.943-0.444-15.904-0.841 0.011-0.806 0.608-0.859 1.196-0.691 7.659-2.259 15.191-3.338 22.794-0.12 0.848 0.141 1.796-0.56 2.531-0.155 0.161-0.112 0.403 0.028 0.574zm-0.856-27.365c-0.815 1.349-0.96 2.827-0.948 4.356 0.119 15.216-0.851 15.141 0.968 20.295 2.523-16.067 3.156-19.132 3.19-23.132 0.011-1.322-1.438-2.5-2.683-2.195-0.396 0.097-0.375 0.423-0.527 0.676zm36.907-32.534c-2.932-0.446-5.708-1.536-8.634-2.032-2.186-0.37-4.363-0.154-6.457-0.234-2.316 0.055-4.562-0.282-6.767 0.334-3.686 1.03-6.628 3.068-8.314 6.556-5.899 12.205-5.208 18.89-6.318 24.726-0.552 2.902 1.841 0.422 10.945 3.052 1.733 0.501 1.835 0.617 1.088 2.184-0.878 1.841-0.86 3.89-0.332 5.651 1.148 3.828 10.487 6.248 11.065-1.499 0.415-5.555-0.984-6.363-0.151-7.068 0.522-0.442 1.228-0.248 1.769 0.039 2.455 1.299 5.143 1.555 7.827 1.892 1.46 0.184 1.025 0.444 2.68-10.113 0.276-1.757-1.989-1.251-5.826-2.455-7.028-2.205-8.231-12.076-1.07-12.668 2.11-0.174 4.139 0.284 6.177 0.687 1.872 0.371 1.883 0.386 2.2-1.531 1.122-6.772 1.43-7.322 0.118-7.521z" fill="#1e251f" fill-opacity=".92944"/>
  <path d="m47.992-13.002c-6.244 14.169-5.05 11.281-7.662 15.483-0.535 0.861-1.212 1.211-2.226 0.714-3.5-1.716-15.508-2.502-12.353-9.183 0.928-1.965 1.374-4.034 1.307-6.196-0.057-1.833-1.141-2.954-3.103-3.357-5.398-1.106-3.785 12.553-11.363 9.497-3.478-1.402-6.734-3.248-10.098-4.876-3.227-1.562-3.616-2.922-1.944-6.247 1.336-2.657 2.237-5.455 3.239-8.228 0.547-1.516-0.571-1.445-3.939-2.748-5.926-2.292-4.343-10.188-1.31-10.545 1.752-0.206 3.502-0.321 5.228 0.377 3.507 1.417 4.643 1.299 6.616-3.485 2.031-4.928 2.486-6.024 4.238-5.392 8.107 2.924 15.727 6.859 23.001 11.419 12.314 7.72 11.261 20.743 10.369 22.767zm-1.165-4.187c-0.751-12-9.1-17.734-20.079-22.888-13.592-6.381-12.433-5.934-13.787-3.301-3.954 7.687-4.659 8.449-7.943 7.328-2.316-0.791-5.023-2.621-6.906-0.377-1.846 2.201-0.645 5.865 2.86 6.989 3.604 1.155 5.182 1.335 4.375 4.063-2.911 9.845-6.474 10.826-2.426 12.962 10.586 5.587 11.693 6.273 13.14 4.618 0.759-0.868 1.35-1.834 1.662-2.968 1.2-4.369 3.844-8.448 7.599-5.886 2.94 2.005 4.568 4.62 1.788 10.762-0.962 2.125-0.774 2.783 1.181 3.952 3.099 1.855 6.667 2.24 10.054 3.19 0.767 0.215 1.096-0.403 1.418-0.958 1.33-2.295 2.625-4.603 3.611-7.078 2.479-6.218 3.9-7.689 3.453-10.408z"/>
  <g fill="none" stroke="#e10e60" stroke-linecap="round" stroke-linejoin="round" stroke-width="2">
   <path d="m-43.326 1.9057 5.1413-22.75"/>
   <path d="m-39.535 2.4199 6.6836-28.791"/>
   <path d="m-35.229 3.2553 7.0692-30.398"/>
   <path d="m-31.373 4.7334 7.7119-31.49"/>
   <path d="m-30.473 12.702 5.6554-21.593"/>
   <path d="m-20.191-20.459 1.5424-6.041"/>
   <path d="m-15.307-21.358 1.4138-4.3701"/>
   <path d="m-27.132 13.345 1.5424-4.8842"/>
   <path d="m-22.376 1.6487 2.0565-7.3263"/>
   <path d="m-17.235 2.934 1.2853-5.7839"/>
  </g>
  <g fill="none" stroke="#0e6def" stroke-linecap="round" stroke-linejoin="round" stroke-width="2">
   <path d="m-8.3249 11.998-0.90885 6.362"/>
   <path d="m-4.2351 12.634-1.1815 7.0891"/>
   <path d="m2.1269 5.9994-2.8174 16.268"/>
   <path d="m6.5803 2.7276-6.9073 40.353"/>
   <path d="m10.19 8.0918-5.5388 33.88"/>
   <path d="m13.838 13.57-4.4743 26.504"/>
   <path d="m17.412 15.421-3.8403 21.784"/>
   <path d="m-3.5595 36.211-1.023 5.7383"/>
   <path d="m-8.5102 36.948-0.52903 4.954"/>
   <path d="m-11.826 36.46-0.93349 4.9942"/>
  </g>
  <g fill="none" stroke="#45ec3c" stroke-linecap="round" stroke-linejoin="round" stroke-width="2">
   <path d="m0.83715-32.439 1.3402-2.7903"/>
   <path d="m3.038-30.636 1.7527-3.871"/>
   <path d="m6.7147-29.095 2.0452-4.9976"/>
   <path d="m4.8232-14.409 12.343-26.931"/>
   <path d="m8.6026-12.416 12.933-27.394"/>
   <path d="m12.417-11.235 13.121-26.084"/>
   <path d="m21.642-19.545 7.6004-15.947"/>
   <path d="m27.556-19.902 6.1969-12.63"/>
   <path d="m30.814-16.182 6.5177-13.471"/>
   <path d="m31.175-8.4772 9.3008-18.6"/>
   <path d="m32.241-2.98 10.515-20.338"/>
   <path d="m36.175-1.7534 7.6288-15.661"/>
  </g>
 </g>
</svg>
